inDegrees=yes
name=ik_S57_A06_T01
DataType=double
version=3
OpenSimVersion=4.3-2021-08-27-4bc7ad9
endheader
time	pelvis_tilt	pelvis_list	pelvis_rotation	pelvis_tx	pelvis_ty	pelvis_tz	hip_flexion_r	hip_adduction_r	hip_rotation_r	knee_angle_r	knee_angle_r_beta	ankle_angle_r	subtalar_angle_r	mtp_angle_r	hip_flexion_l	hip_adduction_l	hip_rotation_l	knee_angle_l	knee_angle_l_beta	ankle_angle_l	subtalar_angle_l	mtp_angle_l	lumbar_extension	lumbar_bending	lumbar_rotation	arm_flex_r	arm_add_r	arm_rot_r	elbow_flex_r	pro_sup_r	wrist_flex_r	wrist_dev_r	arm_flex_l	arm_add_l	arm_rot_l	elbow_flex_l	pro_sup_l	wrist_flex_l	wrist_dev_l
14.29999999999978	-8.665876348019905	-3.1676937133628	-7.405836452958817	0	0.9399999999999999	0	27.74612079103252	-9.205147606185372	-8.23702325240928	31.47906504765777	0.5494133305310939	0	0	0	27.74612079103252	-9.205147606185372	-8.23702325240928	31.47906504765777	0.5494133305310939	0	0	0	-8.77379917267946	-3.481612593777817	-3.010097431362737	31.11352750926402	19.53004872697148	8.468385391744416	36.61400807653198	137.1450998443193	0	0	73.36996102932982	-24.84599668630792	52.52019540808921	27.78110682785537	59.42128450931727	0	0
14.31999999999978	-8.697472235302676	-3.165408455869496	-7.476735485679568	0	0.9399999999999999	0	27.75194416682905	-9.206037499680722	-8.23828954855232	31.48484343203218	0.5495141823638729	0	0	0	27.75194416682905	-9.206037499680722	-8.23828954855232	31.48484343203218	0.5495141823638729	0	0	0	-8.805669211587967	-3.482679248065943	-3.014288439251618	31.18121832974931	19.57036196084725	8.466183754874775	36.57336988753566	137.1886051555905	0	0	73.47628824515324	-24.69228528063147	52.74845617812863	27.64536035683583	59.3344674741373	0	0
14.33999999999978	-8.690393567176754	-3.162896881937187	-7.51216204011337	0	0.9399999999999999	0	27.75528013324959	-9.206545072023902	-8.239013046409925	31.4881646317727	0.5495721482344615	0	0	0	27.75528013324959	-9.206545072023902	-8.239013046409925	31.4881646317727	0.5495721482344615	0	0	0	-8.797559419130431	-3.482924755062434	-2.990057948246429	31.16638693452012	19.56113363624353	8.45731553208355	36.54943180767805	137.19554799101	0	0	73.48406394144087	-24.48625998415652	52.95751879259266	27.62545247984403	59.30821274365716	0	0
14.35999999999978	-8.773593875070549	-3.172407684335333	-7.646703460444657	0	0.9399999999999999	0	27.76092907749997	-9.207407056114789	-8.240240525749638	31.49377185967646	0.5496700128232918	0	0	0	27.76092907749997	-9.207407056114789	-8.240240525749638	31.49377185967646	0.5496700128232918	0	0	0	-8.881169302270308	-3.496749834239401	-3.031866734868934	31.3168184105721	19.66051259283799	8.526665306143524	36.54388219965868	137.2504798177971	0	0	73.6326286804013	-24.39953685007368	53.19032471729818	27.56734676334978	59.1186553356763	0	0
14.37999999999978	-8.765700095242801	-3.169655547684024	-7.671332584181751	0	0.9399999999999999	0	27.76650811285898	-9.208257479338132	-8.241452170084566	31.49931134727256	0.5497666951207172	0	0	0	27.76650811285898	-9.208257479338132	-8.241452170084566	31.49931134727256	0.5497666951207172	0	0	0	-8.871061265646265	-3.499932478004457	-2.986159408468446	31.31898966505744	19.63060737380003	8.394179504599538	36.4977489098807	137.2779217359178	0	0	73.63082168948046	-24.11715719471676	53.38784459810987	27.48446674983877	58.71811859924832	0	0
14.39999999999978	-8.816152403716512	-3.170839639606559	-7.780680393121807	0	0.9399999999999999	0	27.77202060056514	-9.209090651211913	-8.242643120767285	31.50482225027661	0.5498628785228958	0	0	0	27.77202060056514	-9.209090651211913	-8.242643120767285	31.50482225027661	0.5498628785228958	0	0	0	-8.920226464039942	-3.509339136408975	-2.973362602145918	31.40350373629235	19.68012403557525	8.475841758873369	36.48772523390912	137.2971028181866	0	0	73.82511917413899	-24.0167081375852	53.41699734910942	27.59789104412107	57.9449800866806	0	0
14.41999999999978	-8.880547696424175	-3.185431888386281	-7.858608946490418	0	0.9399999999999999	0	27.7781504495673	-9.210012043375956	-8.243963044738489	31.51097570574666	0.549970276581223	0	0	0	27.7781504495673	-9.210012043375956	-8.243963044738489	31.51097570574666	0.549970276581223	0	0	0	-8.979225223066882	-3.540301231835424	-2.919245869483968	31.51731652044663	19.72259426721117	8.40092730510978	36.51131089541545	137.3234632281988	0	0	74.0440300620124	-23.95533815107681	53.46939974348891	27.93255732819339	56.98574209629677	0	0
14.43999999999978	-8.894322122936153	-3.197078530701134	-7.791711986614596	0	0.9399999999999999	0	27.83006355146781	-9.210066257405094	-8.249157772828333	31.56784015191428	0.550962748394171	0	0	0	27.83006355146781	-9.210066257405094	-8.249157772828333	31.56784015191428	0.550962748394171	0	0	0	-8.987885745996648	-3.560489287848532	-2.881457202469749	31.55326327506812	19.71408179083909	8.227922996492181	36.50244833143679	137.3816342002393	0	0	74.18281083851197	-23.90708914716952	53.67627696144122	28.14666180874137	56.6482560319919	0	0
14.45999999999978	-8.895616335539035	-3.203731194817527	-7.6679923471592	0	0.9399999999999999	0	27.83412838334621	-9.210679215731412	-8.250033428152717	31.57191962282711	0.5510339485933394	0	0	0	27.83412838334621	-9.210679215731412	-8.250033428152717	31.57191962282711	0.5510339485933394	0	0	0	-8.985179660471404	-3.575269348276063	-2.828924809697538	31.56081494231807	19.66168674525553	8.024399009284378	36.53503060091175	137.3630997070599	0	0	74.32005985554704	-23.91367755591375	53.95565723757423	28.40020912339677	56.66080247883773	0	0
14.47999999999978	-8.91105352493687	-3.204386678936461	-7.577574245690577	0	0.9399999999999999	0	27.83995544680824	-9.211563249836171	-8.251293626528579	31.57773426009157	0.5511354331584134	0	0	0	27.83995544680824	-9.211563249836171	-8.251293626528579	31.57773426009157	0.5511354331584134	0	0	0	-8.99951297062881	-3.579952172359638	-2.815445655179172	31.5475826915396	19.62664305138167	7.963567212037193	36.58698637146367	137.3407024766206	0	0	74.46870800017763	-24.07049004431903	54.29690822338532	28.76370010899835	56.35580869768413	0	0
14.49999999999978	-8.91001025323564	-3.185290861272651	-7.487588953314133	0	0.9399999999999999	0	27.84488203228964	-9.21231144408247	-8.252359873673003	31.58264372752447	0.5512211195296368	0	0	0	27.84488203228964	-9.21231144408247	-8.252359873673003	31.58264372752447	0.5512211195296368	0	0	0	-8.999997711756031	-3.563554455223543	-2.796645392709415	31.57036048447276	19.5491011038673	7.878869911976696	36.59032051304484	137.3216727792042	0	0	74.5497030358335	-24.27576121137368	54.53465110216874	29.02531362903142	56.23269806235698	0	0
14.51999999999978	-8.915788392291182	-3.188874026548694	-7.445318796766902	0	0.9399999999999999	0	27.84875408425749	-9.21289877378139	-8.253197327444793	31.58650470120792	0.5512885062327459	0	0	0	27.84875408425749	-9.21289877378139	-8.253197327444793	31.58650470120792	0.5512885062327459	0	0	0	-9.00763931058308	-3.561174516448732	-2.840912286360166	31.55688525766883	19.5787360348698	7.93581164405091	36.5906757248261	137.3167366069067	0	0	74.61297935718613	-24.65130518896207	54.60194158703663	29.15988830610764	56.49382079418428	0	0
14.53999999999978	-8.857671234879946	-3.152190348304672	-7.223804099941815	0	0.9399999999999999	0	27.85733761812147	-9.214206431944239	-8.255059140056456	31.59502548661887	0.5514372219930228	0	0	0	27.85733761812147	-9.214206431944239	-8.255059140056456	31.59502548661887	0.5514372219930228	0	0	0	-8.950244151862837	-3.529847760620621	-2.759919973508221	31.41411296734421	19.38113579605195	7.684669262352094	36.66332249113282	137.3738521090562	0	0	74.43415745488191	-24.80740511913015	54.47824396530579	29.4737372710212	56.89029291597147	0	0
14.55999999999978	-8.814803866293952	-3.142439620764468	-7.016999902938386	0	0.9399999999999999	0	27.86301399413778	-9.215068977820433	-8.256288571660249	31.60066887124965	0.5515357176357865	0	0	0	27.86301399413778	-9.215068977820433	-8.256288571660249	31.60066887124965	0.5515357176357865	0	0	0	-8.905265643245897	-3.52456102155873	-2.697482086062228	31.32114225434345	19.23970508036725	7.413515661077423	36.71767012292067	137.3852179724101	0	0	74.24195697936921	-25.03383532055867	54.26779460783497	29.83459553479633	57.11218359989706	0	0
14.57999999999978	-8.816295198124228	-3.141411563787762	-6.962068301281604	0	0.9399999999999999	0	27.87266107609656	-9.216535993590409	-8.258379364412317	31.61024559767628	0.5517028630434939	0	0	0	27.87266107609656	-9.216535993590409	-8.258379364412317	31.61024559767628	0.5517028630434939	0	0	0	-8.911061328879068	-3.512420363720112	-2.773365563011809	31.31552780913026	19.24741520476218	7.447490801861741	36.71303087389049	137.3842306329036	0	0	74.07066868943235	-25.56352154242381	53.79164689519635	30.22170810936938	57.4840767062604	0	0
14.59999999999978	-8.772395898660566	-3.13513614187804	-6.790395846253826	0	0.9399999999999999	0	27.88176292203392	-9.217917919864274	-8.26035042051207	31.6192850148243	0.5518606306351881	0	0	0	27.88176292203392	-9.217917919864274	-8.26035042051207	31.6192850148243	0.5518606306351881	0	0	0	-8.864529474598006	-3.510577194484985	-2.710801203764841	31.09334875892533	19.018984959924	7.503882980860437	37.03788609164563	137.0986270231716	0	0	74.09425442966881	-25.38038153446419	53.8797541072118	29.94009080482705	57.37831133908501	0	0
